{
  "asset": {
    "version": "2.0",
    "generator": "THREE.GLTFExporter"
  },
  "scenes": [
    {
      "name": "Scene",
      "nodes": [
        2,
        3,
        4,
        5,
        6,
        7
      ]
    }
  ],
  "scene": 0,
  "nodes": [
    {
      "matrix": [
        15.089996337890625,
        0,
        0,
        0,
        0,
        0.5713857374067346,
        15.07917345606897,
        0,
        0,
        -15.07917345606897,
        0.5713857374067346,
        0,
        0.6309886574745178,
        0.1286478042602539,
        -0.503770112991333,
        1
      ],
      "name": "Curve",
      "extras": {
        "name": "Curve"
      },
      "mesh": 0
    },
    {
      "matrix": [
        15.089996337890625,
        0,
        0,
        0,
        0,
        0.5713857374067346,
        15.07917345606897,
        0,
        0,
        -15.07917345606897,
        0.5713857374067346,
        0,
        0.2964308559894562,
        -0.12864777445793152,
        -0.49402058124542236,
        1
      ],
      "name": "Curve001",
      "extras": {
        "name": "Curve.001"
      },
      "mesh": 1
    },
    {
      "name": "atendo2.glb",
      "children": [
        0,
        1
      ]
    },
    {
      "matrix": [
        1,
        0,
        0,
        0,
        0,
        1,
        0,
        0,
        0,
        0,
        1,
        0,
        0,
        0.7017269371178686,
        1.1265862461550955,
        1
      ],
      "name": "AmbientLight"
    },
    {
      "matrix": [
        1,
        0,
        0,
        0,
        0,
        1,
        0,
        0,
        0,
        0,
        1,
        0,
        2.6690964832981465,
        1.5737333953726527,
        2.209096459210984,
        1
      ],
      "name": "DirectionalLight",
      "extensions": {
        "KHR_lights_punctual": {
          "light": 0
        }
      }
    },
    {
      "matrix": [
        1,
        0,
        0,
        0,
        0,
        1,
        0,
        0,
        0,
        0,
        1,
        0,
        0,
        0.7056685863974564,
        1.394530468389838,
        1
      ],
      "name": "AmbientLight"
    },
    {
      "matrix": [
        1,
        0,
        0,
        0,
        0,
        1,
        0,
        0,
        0,
        0,
        1,
        0,
        0.7,
        0.45917730293366477,
        0.7279965019509027,
        1
      ],
      "name": "PointLight",
      "extensions": {
        "KHR_lights_punctual": {
          "light": 1
        }
      }
    },
    {
      "matrix": [
        1,
        0,
        0,
        0,
        0,
        1,
        0,
        0,
        0,
        0,
        1,
        0,
        -0.11157329975413544,
        -0.23448967952800154,
        -0.6659504482780627,
        1
      ],
      "name": "PointLight",
      "extensions": {
        "KHR_lights_punctual": {
          "light": 2
        }
      }
    }
  ],
  "bufferViews": [
    {
      "buffer": 0,
      "byteOffset": 0,
      "byteLength": 6504,
      "target": 34962,
      "byteStride": 12
    },
    {
      "buffer": 0,
      "byteOffset": 6504,
      "byteLength": 6504,
      "target": 34962,
      "byteStride": 12
    },
    {
      "buffer": 0,
      "byteOffset": 13008,
      "byteLength": 4336,
      "target": 34962,
      "byteStride": 8
    },
    {
      "buffer": 0,
      "byteOffset": 17344,
      "byteLength": 2088,
      "target": 34963
    },
    {
      "buffer": 0,
      "byteOffset": 19432,
      "byteLength": 6024,
      "target": 34962,
      "byteStride": 12
    },
    {
      "buffer": 0,
      "byteOffset": 25456,
      "byteLength": 6024,
      "target": 34962,
      "byteStride": 12
    },
    {
      "buffer": 0,
      "byteOffset": 31480,
      "byteLength": 4016,
      "target": 34962,
      "byteStride": 8
    },
    {
      "buffer": 0,
      "byteOffset": 35496,
      "byteLength": 2616,
      "target": 34963
    }
  ],
  "buffers": [
    {
      "byteLength": 38112,
      "uri": "data:application/octet-stream;base64,"
    }
  ],
  "accessors": [
    {
      "bufferView": 0,
      "componentType": 5126,
      "count": 542,
      "max": [
        -0.00953998789191246,
        0.03963659703731537,
        0.012773245573043823
      ],
      "min": [
        -0.054127976298332214,
        0.027758799493312836,
        -0.03783862292766571
      ],
      "type": "VEC3"
    },
    {
      "bufferView": 1,
      "componentType": 5126,
      "count": 542,
      "max": [
        0.9999997615814209,
        0.9999997615814209,
        1
      ],
      "min": [
        -0.9999997615814209,
        -0.9989273548126221,
        -1
      ],
      "type": "VEC3"
    },
    {
      "bufferView": 2,
      "componentType": 5126,
      "count": 542,
      "max": [
        1,
        1
      ],
      "min": [
        0,
        1
      ],
      "type": "VEC2"
    },
    {
      "bufferView": 3,
      "componentType": 5123,
      "count": 1044,
      "max": [
        541
      ],
      "min": [
        0
      ],
      "type": "SCALAR"
    },
    {
      "bufferView": 4,
      "componentType": 5126,
      "count": 502,
      "max": [
        -0.006829538382589817,
        0.038987815380096436,
        0.007555324584245682
      ],
      "min": [
        -0.04973660781979561,
        0.027158040553331375,
        -0.041649043560028076
      ],
      "type": "VEC3"
    },
    {
      "bufferView": 5,
      "componentType": 5126,
      "count": 502,
      "max": [
        0.9999997615814209,
        0.9990138411521912,
        0.9999932050704956
      ],
      "min": [
        -0.9999997615814209,
        -0.9990084171295166,
        -1
      ],
      "type": "VEC3"
    },
    {
      "bufferView": 6,
      "componentType": 5126,
      "count": 502,
      "max": [
        1,
        1
      ],
      "min": [
        0,
        1
      ],
      "type": "VEC2"
    },
    {
      "bufferView": 7,
      "componentType": 5123,
      "count": 1308,
      "max": [
        501
      ],
      "min": [
        0
      ],
      "type": "SCALAR"
    }
  ],
  "materials": [
    {
      "pbrMetallicRoughness": {
        "baseColorFactor": [
          0.07421356837213867,
          0.7083757798856457,
          1,
          1
        ],
        "metallicFactor": 0.3,
        "roughnessFactor": 0
      }
    },
    {
      "pbrMetallicRoughness": {
        "baseColorFactor": [
          0,
          0.6038273388475408,
          1,
          1
        ],
        "metallicFactor": 0,
        "roughnessFactor": 0
      },
      "doubleSided": true,
      "name": "Material",
      "extensions": {
        "KHR_materials_transmission": {
          "transmissionFactor": 1
        },
        "KHR_materials_volume": {
          "thicknessFactor": 0,
          "attenuationDistance": null,
          "attenuationColor": [
            1,
            1,
            1
          ]
        },
        "KHR_materials_ior": {
          "ior": 1.4500000476837156
        },
        "KHR_materials_clearcoat": {
          "clearcoatFactor": 1,
          "clearcoatRoughnessFactor": 0
        }
      }
    }
  ],
  "meshes": [
    {
      "primitives": [
        {
          "mode": 4,
          "attributes": {
            "POSITION": 0,
            "NORMAL": 1,
            "TEXCOORD_0": 2
          },
          "indices": 3,
          "material": 0
        }
      ]
    },
    {
      "primitives": [
        {
          "mode": 4,
          "attributes": {
            "POSITION": 4,
            "NORMAL": 5,
            "TEXCOORD_0": 6
          },
          "indices": 7,
          "material": 1
        }
      ]
    }
  ],
  "extensions": {
    "KHR_lights_punctual": {
      "lights": [
        {
          "name": "DirectionalLight",
          "color": [
            1,
            0.033104766565152086,
            0.033104766565152086
          ],
          "intensity": 5.56,
          "type": "directional"
        },
        {
          "name": "PointLight",
          "color": [
            1,
            1,
            1
          ],
          "intensity": 2.54,
          "type": "point"
        },
        {
          "name": "PointLight",
          "color": [
            0.20863687013464577,
            0.28314874041918053,
            0.8387990117372213
          ],
          "intensity": 7.86,
          "type": "point"
        }
      ]
    }
  },
  "extensionsUsed": [
    "KHR_materials_transmission",
    "KHR_materials_volume",
    "KHR_materials_ior",
    "KHR_materials_clearcoat",
    "KHR_lights_punctual"
  ]
}